<svg width="50" height="50" viewBox="0 0 50 50" fill="none" xmlns="http://www.w3.org/2000/svg">
<path d="M41.625 10.7701C37.645 7.56605 31.348 7.02305 31.078 7.00405C30.8729 6.98716 30.6676 7.0345 30.4905 7.13949C30.3135 7.24449 30.1735 7.40195 30.09 7.59005C29.9699 7.86027 29.868 8.13823 29.785 8.42205C32.418 8.86705 35.652 9.76205 38.578 11.5781C38.6896 11.6473 38.7865 11.7379 38.8631 11.8446C38.9397 11.9513 38.9946 12.0721 39.0245 12.2C39.0545 12.3279 39.0589 12.4605 39.0377 12.5901C39.0164 12.7198 38.9698 12.8439 38.9005 12.9556C38.8312 13.0672 38.7406 13.1641 38.6339 13.2407C38.5272 13.3173 38.4065 13.3721 38.2785 13.4021C38.1506 13.432 38.0181 13.4365 37.8884 13.4152C37.7588 13.3939 37.6346 13.3473 37.523 13.2781C32.493 10.1551 26.211 10.0001 25 10.0001C23.79 10.0001 17.504 10.1561 12.477 13.2771C12.3654 13.3463 12.2412 13.3929 12.1116 13.4142C11.9819 13.4355 11.8494 13.431 11.7215 13.4011C11.4631 13.3406 11.2394 13.18 11.0995 12.9546C10.9596 12.7291 10.915 12.4573 10.9755 12.199C11.0359 11.9407 11.1966 11.717 11.422 11.5771C14.348 9.76605 17.582 8.86705 20.215 8.42605C20.063 7.93005 19.925 7.61705 19.915 7.59005C19.8318 7.40062 19.6912 7.24213 19.513 7.13698C19.3348 7.03182 19.1281 6.98532 18.922 7.00405C18.652 7.02405 12.355 7.56605 8.32 10.8131C6.215 12.7611 2 24.1521 2 34.0001C2 34.1761 2.047 34.344 2.133 34.496C5.039 39.6061 12.973 40.9411 14.781 41.0001H14.812C14.9698 41.0005 15.1254 40.9635 15.2662 40.8923C15.407 40.821 15.5289 40.7175 15.622 40.5901L17.449 38.0741C12.516 36.8011 9.996 34.6371 9.852 34.5081C9.65309 34.3325 9.53207 34.0851 9.51556 33.8203C9.49906 33.5555 9.58843 33.295 9.764 33.0961C9.93957 32.8971 10.187 32.7761 10.4518 32.7596C10.7166 32.7431 10.9771 32.8325 11.176 33.0081C11.234 33.0631 15.875 37.0001 25 37.0001C34.14 37.0001 38.781 33.0471 38.828 33.0081C39.0275 32.8337 39.2881 32.7457 39.5524 32.7633C39.8168 32.781 40.0634 32.9028 40.238 33.1021C40.3244 33.2003 40.3907 33.3145 40.4329 33.4384C40.4752 33.5622 40.4926 33.6931 40.4843 33.8237C40.4759 33.9543 40.4419 34.0819 40.3842 34.1993C40.3265 34.3168 40.2463 34.4217 40.148 34.5081C40.004 34.6371 37.484 36.8011 32.551 38.0741L34.379 40.5901C34.472 40.7173 34.5938 40.8208 34.7343 40.892C34.8749 40.9633 35.0304 41.0003 35.188 41.0001H35.218C37.028 40.9411 44.961 39.6051 47.868 34.496C47.953 34.344 48 34.1761 48 34.0001C48 24.1521 43.785 12.7621 41.625 10.7701V10.7701ZM18.5 30.0001C16.566 30.0001 15 28.2101 15 26.0001C15 23.7901 16.566 22.0001 18.5 22.0001C20.434 22.0001 22 23.7901 22 26.0001C22 28.2101 20.434 30.0001 18.5 30.0001ZM31.5 30.0001C29.566 30.0001 28 28.2101 28 26.0001C28 23.7901 29.566 22.0001 31.5 22.0001C33.434 22.0001 35 23.7901 35 26.0001C35 28.2101 33.434 30.0001 31.5 30.0001Z" fill="#263238"/>
</svg>
