<svg width="50" height="50" viewBox="0 0 50 50" fill="none" xmlns="http://www.w3.org/2000/svg">
<path d="M37.5748 27.2264C35.4592 27.2264 33.4768 26.3302 31.6757 24.8712L32.1143 22.8117L32.1334 22.7354C32.5239 20.5425 33.7628 16.8617 37.5748 16.8617C40.4336 16.8617 42.7589 19.1884 42.7589 22.0487C42.7493 24.8997 40.4242 27.2264 37.5748 27.2264V27.2264ZM37.5748 11.608C32.7049 11.608 28.9314 14.7736 27.3972 19.9798C25.0528 16.4613 23.2802 12.2373 22.2416 8.68066H17.0002V22.3253C17.0002 25.0142 14.8083 27.2071 12.1209 27.2071C9.43353 27.2071 7.2419 25.0142 7.2419 22.3253V8.68066H2.00006V22.3253C1.98099 27.913 6.5267 32.4992 12.111 32.4992C17.6956 32.4992 22.2413 27.913 22.2413 22.3253V20.037C23.2608 22.1632 24.5092 24.3085 26.0245 26.2157L22.8129 41.319H28.1783L30.5034 30.3633C32.5427 31.6696 34.8871 32.4898 37.5745 32.4898C43.3208 32.4898 48 27.7795 48 22.0297C48 16.2896 43.3208 11.608 37.5745 11.608H37.5748Z" fill="#263238"/>
</svg>
