<?xml version="1.0" encoding="UTF-8" standalone="no"?>
<!-- Created with Inkscape (http://www.inkscape.org/) -->

<svg
  xmlns:dc="http://purl.org/dc/elements/1.1/"
  xmlns:cc="http://creativecommons.org/ns#"
  xmlns:rdf="http://www.w3.org/1999/02/22-rdf-syntax-ns#"
  xmlns:svg="http://www.w3.org/2000/svg"
  xmlns="http://www.w3.org/2000/svg"
  xmlns:sodipodi="http://sodipodi.sourceforge.net/DTD/sodipodi-0.dtd"
  xmlns:inkscape="http://www.inkscape.org/namespaces/inkscape"
  version="1.1"
  id="svg2"
  xml:space="preserve"
  width="250"
  height="50"
  viewBox="0 0 250 50"
  sodipodi:docname="black-logo.svg"
  inkscape:version="0.92.2 5c3e80d, 2017-08-06"><metadata
     id="metadata8"><rdf:RDF><cc:Work
         rdf:about=""><dc:format>image/svg+xml</dc:format><dc:type
  rdf:resource="http://purl.org/dc/dcmitype/StillImage" /><dc:title></dc:title></cc:Work></rdf:RDF></metadata><defs
  id="defs6"><clipPath
       clipPathUnits="userSpaceOnUse"
       id="clipPath20"><path
         d="M 0,500 H 500 V 0 H 0 Z"
         id="path18"
         inkscape:connector-curvature="0" /></clipPath></defs><sodipodi:namedview
  pagecolor="#ffffff"
  bordercolor="#666666"
  borderopacity="1"
  objecttolerance="10"
  gridtolerance="10"
  guidetolerance="10"
  inkscape:pageopacity="0"
  inkscape:pageshadow="2"
  inkscape:window-width="1440"
  inkscape:window-height="855"
  id="namedview4"
  showgrid="false"
  inkscape:pagecheckerboard="true"
  inkscape:zoom="2.0025263"
  inkscape:cx="214.45416"
  inkscape:cy="118.47933"
  inkscape:window-x="0"
  inkscape:window-y="1"
  inkscape:window-maximized="1"
  inkscape:current-layer="g10" /><g
  id="g10"
  inkscape:groupmode="layer"
  inkscape:label="Roonyx logo"
  transform="matrix(1.3333333,0,0,-1.3333333,0,49.999983)"><g
       id="g929"
       transform="translate(-157.29563,-352.0553)"><g
         id="g14"><g
           id="g22"
           transform="translate(226.1567,376.1499)"><path
             d="M 0,0 V 2.13 H -5.207 V -16.332 H 0 v 9.074 c 0,1.525 0.329,2.754 0.986,3.688 0.658,0.933 1.604,1.401 2.841,1.401 0.972,0 1.866,-0.237 2.682,-0.711 L 7.968,1.933 C 7.074,2.38 6.048,2.604 4.892,2.604 2.893,2.604 1.262,1.736 0,0"
             style="fill:#000000;fill-opacity:1;fill-rule:nonzero;stroke:none"
             id="path24"
             inkscape:connector-curvature="0" /></g><g
  id="g26"
  transform="translate(248.9399,365.8926)"><path
             d="m 0,0 c -0.953,-0.916 -2.091,-1.373 -3.413,-1.373 -1.322,0 -2.459,0.457 -3.412,1.373 -0.954,0.915 -1.43,2.046 -1.43,3.393 0,1.347 0.469,2.479 1.41,3.394 0.966,0.916 2.11,1.373 3.432,1.373 C -2.091,8.16 -0.953,7.703 0,6.787 0.953,5.872 1.43,4.74 1.43,3.393 1.43,2.046 0.953,0.915 0,0 m -3.413,12.774 c -2.771,0 -5.109,-0.903 -7.016,-2.708 -1.906,-1.805 -2.86,-4.029 -2.86,-6.673 0,-2.643 0.954,-4.868 2.86,-6.673 1.907,-1.805 4.245,-2.707 7.016,-2.707 2.77,0 5.11,0.902 7.017,2.707 1.906,1.805 2.859,4.03 2.859,6.673 0,2.644 -0.953,4.868 -2.859,6.673 -1.907,1.805 -4.247,2.708 -7.017,2.708"
             style="fill:#000000;fill-opacity:1;fill-rule:nonzero;stroke:none"
             id="path28"
             inkscape:connector-curvature="0" /></g><g
  id="g30"
  transform="translate(271.3652,365.877)"><path
             d="m 0,0 c -0.957,-0.911 -2.097,-1.363 -3.418,-1.357 -1.322,0.006 -2.458,0.469 -3.407,1.388 -0.949,0.92 -1.421,2.053 -1.414,3.4 0.006,1.347 0.481,2.477 1.427,3.387 0.969,0.911 2.115,1.363 3.437,1.357 C -2.054,8.169 -0.917,7.707 0.031,6.787 0.98,5.867 1.452,4.734 1.446,3.387 1.439,2.04 0.958,0.911 0,0 m -3.354,12.79 c -2.77,0.012 -5.113,-0.88 -7.028,-2.675 -1.915,-1.797 -2.879,-4.017 -2.89,-6.66 -0.013,-2.644 0.93,-4.873 2.829,-6.686 1.898,-1.815 4.232,-2.727 7.004,-2.74 2.769,-0.013 5.113,0.878 7.028,2.675 1.915,1.796 2.878,4.015 2.89,6.66 0.012,2.643 -0.93,4.872 -2.829,6.686 -1.898,1.813 -4.233,2.726 -7.004,2.74"
             style="fill:#000000;fill-opacity:1;fill-rule:nonzero;stroke:none"
             id="path32"
             inkscape:connector-curvature="0" /></g><g
  id="g34"
  transform="translate(292.0127,378.7681)"><path
             d="m 0,0 c -2.209,0.01 -4.015,-0.797 -5.415,-2.42 l 0.009,1.972 -5.207,0.024 -0.085,-18.462 5.207,-0.024 0.05,10.888 c 0.004,1.051 0.318,1.897 0.939,2.54 0.62,0.641 1.418,0.96 2.391,0.956 0.972,-0.005 1.766,-0.331 2.382,-0.978 0.615,-0.647 0.92,-1.497 0.916,-2.549 l -0.05,-10.887 5.206,-0.024 0.056,12.11 C 6.408,-4.802 5.798,-3.15 4.567,-1.895 3.337,-0.64 1.814,-0.008 0,0"
             style="fill:#000000;fill-opacity:1;fill-rule:nonzero;stroke:none"
             id="path36"
             inkscape:connector-curvature="0" /></g><g
  id="g38"
  transform="translate(310.4297,368.4307)"><path
             d="m 0,0 -4.287,9.862 -5.215,0.024 7.048,-14.972 -2.782,-5.952 5.157,-0.023 L 9.653,9.886 4.479,9.91 Z"
             style="fill:#000000;fill-opacity:1;fill-rule:nonzero;stroke:none"
             id="path40"
             inkscape:connector-curvature="0" /></g><g
  id="g42"
  transform="translate(335.8564,369.4214)"><path
             d="M 0,0 6.065,8.895 H 0.127 L -3.468,3.28 -7.062,8.895 h -5.937 L -6.935,0 -13.541,-9.533 h 5.933 l 4.14,6.287 4.142,-6.287 h 5.932 z"
             style="fill:#000000;fill-opacity:1;fill-rule:nonzero;stroke:none"
             id="path44"
             inkscape:connector-curvature="0" /></g><g
  id="g46"
  transform="translate(190.4448,365.96)"><path
             d="m 0,0 c 4.493,1.664 7.571,5.249 7.571,10.951 0,3.43 -1.063,6.206 -3.029,8.172 -2.322,2.322 -5.805,3.585 -10.293,3.585 0,0 -6.061,0.034 -6.166,0.034 -1.072,0 -1.672,-0.963 -1.75,-2.139 L -13.821,10.398 C -13.823,9.91 -14.07,9.81 -14.248,9.809 c -0.293,-0.002 -0.42,0.285 -0.433,0.326 -0.119,0.282 -0.176,0.993 -0.258,1.993 l -0.735,8.315 c -0.097,1.162 -0.707,2.114 -1.767,2.114 -1.061,0 -1.655,-0.953 -1.732,-2.117 0,0 -0.995,-12.521 -1.151,-13.04 -0.091,-0.325 -0.377,-0.569 -0.731,-0.569 -0.426,0 -0.699,0.328 -0.746,0.775 -0.001,0.009 -1.072,13.165 -1.072,13.165 -0.072,1.165 -0.132,2.118 -0.662,2.118 -0.53,0 -0.587,-0.953 -0.655,-2.118 L -25.001,6.976 c -0.069,-1.164 -0.204,-2.311 -1.079,-2.603 -0.875,-0.292 -1.578,0.25 -1.602,1.546 v 14.849 c 0,1.166 0,2.121 -0.53,2.121 -0.53,0 -0.53,-0.955 -0.53,-2.121 V 6.979 c 0,-1.166 -0.01,-2.215 -0.53,-2.651 -0.479,-0.4 -1.455,-0.53 -1.747,-0.53 -0.292,0 -0.53,-0.239 -0.53,-0.53 0,-0.292 0.238,-0.531 0.53,-0.531 0.671,0 1.343,-0.1 1.747,-0.53 0.282,-0.301 0.53,-1.485 0.53,-2.651 V -9.99 c 0,-1.167 0,-2.121 0.53,-2.121 0.53,0 0.53,0.954 0.53,2.121 V 0.616 c 0,1.167 0.673,1.696 1.586,1.57 1.016,-0.141 1.043,-1.461 1.133,-2.624 l 0.735,-9.558 c 0.089,-1.164 0.163,-2.115 0.693,-2.115 0.53,0 0.61,0.951 0.706,2.113 l 0.911,8.855 c 0.004,0.052 0.02,0.136 0.045,0.227 0.016,0.055 0.033,0.106 0.06,0.156 0.01,0.021 0.025,0.037 0.038,0.056 0.148,0.232 0.395,0.394 0.69,0.394 0.313,0 0.576,-0.18 0.718,-0.435 0.004,-0.006 0.009,-0.012 0.013,-0.018 0.018,-0.036 0.034,-0.07 0.047,-0.109 0.032,-0.079 0.058,-0.169 0.072,-0.283 0.003,-0.017 1.011,-9.176 1.011,-9.176 0.105,-1.162 0.722,-2.112 1.783,-2.112 1.06,0 1.696,0.948 1.825,2.108 0,0 0.637,7.892 0.689,8.497 0,0.003 -0.002,0.005 -0.002,0.007 0,0.007 0.004,0.012 0.004,0.019 0,0.006 0.002,0.027 0.002,0.03 10e-4,0.01 0.006,0.014 0.008,0.023 0.036,0.212 0.212,0.377 0.434,0.377 0.248,0 0.448,-0.201 0.448,-0.449 l 0.264,-8.61 c 0.099,-1.083 0.642,-1.975 1.565,-2.108 v -0.009 h 0.074 c 0.055,-0.005 0.106,-0.018 0.163,-0.018 0.058,0 0.11,0.013 0.165,0.018 l 2.675,-0.058 v -0.012 h 8.673 v 0.012 H 8.63 Z"
             style="fill:#000000;fill-opacity:1;fill-rule:nonzero;stroke:none"
             id="path48"
             inkscape:connector-curvature="0" /></g></g></g></g></svg>
