<svg width="150" height="50" viewBox="0 0 150 50" fill="none" xmlns="http://www.w3.org/2000/svg">
<path d="M54.9721 20.9865V19.2838H50.7559V34.2838H54.9721V26.9054C54.9721 25.6892 55.2153 24.6352 55.7829 23.9054C56.3505 23.1757 57.0802 22.7703 58.0532 22.7703C58.864 22.7703 59.5937 22.9325 60.2423 23.3379L61.4586 19.446C60.7288 19.1217 59.918 18.8784 58.945 18.8784C57.3234 18.8784 56.0261 19.6081 54.9721 20.9865Z" fill="black"/>
<path d="M70.7028 18.9595C68.4325 18.9595 66.5677 19.6892 65.0271 21.1487C63.4866 22.6081 62.6758 24.3919 62.6758 26.5811C62.6758 28.6892 63.4866 30.5541 65.0271 32.0135C66.5677 33.473 68.4325 34.2027 70.7028 34.2027C72.9731 34.2027 74.8379 33.473 76.3785 32.0135C77.919 30.5541 78.7298 28.7703 78.7298 26.5811C78.7298 24.473 77.919 22.6081 76.3785 21.1487C74.8379 19.6892 72.9731 18.9595 70.7028 18.9595ZM73.4596 29.3379C72.6488 30.0676 71.7569 30.473 70.7028 30.473C69.6487 30.473 68.6758 30.0676 67.9461 29.3379C67.1352 28.6081 66.8109 27.7162 66.8109 26.5811C66.8109 25.527 67.2163 24.5541 67.9461 23.8243C68.7569 23.0946 69.6487 22.6892 70.7028 22.6892C71.7569 22.6892 72.7298 23.0946 73.4596 23.8243C74.2704 24.5541 74.5947 25.446 74.5947 26.5811C74.5947 27.7162 74.2704 28.6081 73.4596 29.3379Z" fill="black"/>
<path d="M88.9469 18.9595C86.6767 18.9595 84.8118 19.6892 83.2713 21.1487C81.7307 22.6081 80.9199 24.3919 80.9199 26.5811C80.9199 28.6892 81.6496 30.5541 83.1902 32.0135C84.7307 33.473 86.5956 34.2027 88.8659 34.2027C91.1361 34.2027 93.001 33.473 94.5415 32.0135C96.0821 30.5541 96.8929 28.7703 96.8929 26.5811C96.8929 24.473 96.1632 22.6081 94.6226 21.1487C93.0821 19.7703 91.2172 18.9595 88.9469 18.9595ZM91.6226 29.3379C90.8118 30.0676 89.9199 30.473 88.8659 30.473C87.8118 30.473 86.8388 30.0676 86.1091 29.3379C85.3794 28.6081 84.974 27.6352 84.974 26.5811C84.974 25.527 85.3794 24.5541 86.1091 23.8243C86.9199 23.0946 87.8118 22.6892 88.8659 22.6892C89.9199 22.6892 90.8929 23.0946 91.6226 23.8243C92.3524 24.5541 92.7578 25.527 92.7578 26.5811C92.8388 27.7162 92.4334 28.6081 91.6226 29.3379Z" fill="black"/>
<path d="M108.406 18.8784C106.622 18.8784 105.163 19.5271 104.028 20.8244V19.2027H99.8115L99.7305 34.2027H103.947V25.3649C103.947 24.473 104.19 23.8244 104.676 23.3379C105.163 22.8514 105.812 22.5271 106.622 22.5271C107.433 22.5271 108.082 22.7703 108.568 23.3379C109.055 23.8244 109.298 24.5541 109.298 25.3649V34.2027H113.514L113.595 24.3919C113.595 22.6892 113.109 21.3919 112.136 20.3379C111.082 19.446 109.866 18.8784 108.406 18.8784Z" fill="black"/>
<path d="M123.324 27.3107L119.837 19.2837H115.621L121.378 31.3648L119.108 36.2296H123.243L131.189 19.2837H126.972L123.324 27.3107Z" fill="black"/>
<path d="M143.919 26.4999L148.865 19.2837H144.081L141.162 23.8242L138.243 19.2837H133.378L138.324 26.4999L132.973 34.2026H137.756L141.162 29.0945L144.486 34.2026H149.27L143.919 26.4999Z" fill="black"/>
<path d="M26.0269 29.2566C29.6755 27.8782 32.189 25.0403 32.189 20.3376C32.189 17.5809 31.2971 15.3106 29.7566 13.689C27.8917 11.8241 25.0539 10.7701 21.4052 10.7701C21.4052 10.7701 16.4593 10.7701 16.3782 10.7701C15.4863 10.7701 14.9998 11.5809 14.9188 12.4728L14.7566 20.743C14.7566 21.1485 14.5944 21.2295 14.4323 21.2295C14.189 21.2295 14.1079 20.9863 14.1079 20.9863C14.0269 20.743 13.9458 20.1755 13.8647 19.3647L13.2971 12.6349C13.2161 11.662 12.7296 10.9322 11.8377 10.9322C10.9458 10.9322 10.4593 11.743 10.4593 12.6349C10.4593 12.6349 9.64849 22.7701 9.48632 23.1755C9.40524 23.4187 9.162 23.662 8.91876 23.662C8.59443 23.662 8.35119 23.4187 8.35119 23.0133L7.4593 12.3106C7.37821 11.3376 7.37822 10.6079 6.89173 10.6079C6.40524 10.6079 6.40524 11.4187 6.32416 12.3106L5.67551 23.4998C5.59443 24.4728 5.51334 25.3647 4.78361 25.6079C4.05388 25.8512 3.48632 25.3647 3.48632 24.3917V12.3917C3.48632 11.4187 3.48632 10.689 3.08092 10.689C2.67551 10.689 2.67551 11.4998 2.67551 12.3917V23.662C2.67551 24.6349 2.67551 25.4458 2.27011 25.8512C1.8647 26.1755 1.0539 26.2566 0.891737 26.2566C0.64849 26.2566 0.486328 26.4187 0.486328 26.662C0.486328 26.9052 0.64849 27.0674 0.891737 27.0674C1.4593 27.0674 1.94578 27.1485 2.27011 27.4728C2.51335 27.716 2.67551 28.689 2.67551 29.662V37.3647C2.67551 38.3376 2.67551 39.0674 3.08092 39.0674C3.48632 39.0674 3.48632 38.2566 3.48632 37.3647V28.7701C3.48632 27.7971 4.05388 27.3917 4.78361 27.4728C5.59442 27.5539 5.59443 28.689 5.67551 29.5809L6.24308 37.3647C6.32416 38.3376 6.40523 39.0674 6.81064 39.0674C7.21604 39.0674 7.29714 38.2566 7.37822 37.3647L8.10794 30.1485C8.10794 30.0674 8.10794 30.0674 8.10794 29.9863C8.10794 29.9052 8.10795 29.9052 8.18903 29.8241C8.18903 29.8241 8.18903 29.8241 8.18903 29.7431C8.27011 29.5809 8.51335 29.4187 8.75659 29.4187C8.99984 29.4187 9.24308 29.5809 9.32416 29.7431V29.8241C9.32416 29.9052 9.40524 29.9863 9.40524 30.0674L10.2161 37.5268C10.2971 38.4998 10.7836 39.2295 11.6755 39.2295C12.5674 39.2295 13.0539 38.4998 13.135 37.5268C13.135 37.5268 13.6215 31.1214 13.7025 30.6349C13.7025 30.4728 13.8647 30.3106 14.0269 30.3106C14.189 30.3106 14.3512 30.4728 14.3512 30.6349L14.5944 37.6079C14.6755 38.4998 15.0809 39.2295 15.8917 39.3106H15.9728C16.0539 39.3106 16.0539 39.3106 16.135 39.3106C16.2161 39.3106 16.2161 39.3106 16.2971 39.3106L18.4863 39.3917H25.5404H32.9188L26.0269 29.2566Z" fill="black"/>
<path d="M36.6875 33.3203C36.6875 31.7804 35.3975 30.5317 33.8066 30.5317C32.2158 30.5317 30.9258 31.7804 30.9258 33.3203C30.9258 34.8602 32.2158 36.1089 33.8066 36.1089C35.3975 36.1089 36.6875 34.8602 36.6875 33.3203Z" fill="#BBE8EF"/>
<path d="M35.5374 32.7349C35.5374 31.811 34.7629 31.0621 33.8078 31.0621C32.8526 31.0621 32.0781 31.811 32.0781 32.7349C32.0781 33.6589 32.8526 34.4077 33.8078 34.4077C34.7629 34.4077 35.5374 33.6589 35.5374 32.7349Z" fill="white"/>
<path d="M34.2636 31.6145C34.2636 31.6145 34.3399 26.9486 36.73 23.6328C36.73 23.6328 39.0509 19.7239 39.1639 18.735C39.1639 18.735 37.8622 11.5445 35.0359 8.67544C35.0359 8.67544 30.1778 2.18545 23.1617 4.42551C19.9484 5.45147 17.8185 7.99089 16.2974 10.8803C16.2974 10.8803 21.9106 9.64525 29.2435 13.0714C29.2435 13.0714 34.0892 15.1505 35.6669 19.3371C35.6669 19.3371 36.4669 21.1399 32.6042 24.5384C32.6042 24.5384 32.0897 30.2392 33.2715 31.5011C33.2715 31.5011 33.8739 32.3034 34.2636 31.6145Z" fill="#F12340"/>
<path d="M33.9195 9.66614L34.8928 13.6989L31.5525 11.7309C31.5525 11.7309 35.602 15.6411 34.6411 17.3759L34.4222 18.7363C34.4222 18.7363 34.2338 17.3615 33.1602 19.8008C33.1602 19.8008 32.6989 21.3504 32.5341 22.3698C31.9363 26.0692 31.9002 31.1032 33.7733 31.8852C33.7733 31.8852 34.5121 32.2281 34.4222 30.2143C34.4222 30.2143 34.6171 26.9555 38.374 20.6573L39.1615 18.7363C39.1615 18.7363 37.5793 13.0906 33.9195 9.66614Z" fill="#D0001D"/>
<path d="M33.3955 21.0309C33.3955 21.0309 32.2242 21.4787 31.7449 20.7391C31.2656 19.9995 29.548 18.6551 27.0134 17.2675C22.9988 15.0697 19.1024 14.3105 14.474 14.7704C14.474 14.7704 13.4196 12.0526 14.9099 10.8469C15.9654 9.99307 17.2085 9.97828 18.6288 9.82314C18.6288 9.82314 23.2614 9.26409 29.9922 11.9224C29.9922 11.9224 34.2516 14.1601 35.8925 17.1795C35.8925 17.1795 36.269 18.2912 33.3955 21.0309Z" fill="#BBE8EF"/>
<path d="M32.4681 13.486C32.4681 13.486 32.2866 16.6405 25.9778 14.4985C25.9778 14.4985 18.3106 12.9638 15.3441 13.4323C15.3441 13.4323 14.8881 11.8558 16.1233 10.3629C17.3586 8.86991 25.2547 8.15487 32.4681 13.486Z" fill="white"/>
</svg>
