<svg width="250" height="50" viewBox="0 0 250 50" fill="none" xmlns="http://www.w3.org/2000/svg">
<g clip-path="url(#clip0)">
<path d="M6.94127 26.4706C6.1291 25.6584 6.1291 24.3416 6.94127 23.5294L14.2941 16.1766C15.1063 15.3644 16.4231 15.3644 17.2352 16.1766L24.5881 23.5294C25.4002 24.3416 25.4002 25.6584 24.5881 26.4706L17.2352 33.8234C16.4231 34.6356 15.1063 34.6356 14.2941 33.8234L6.94127 26.4706Z" fill="black"/>
<path fill-rule="evenodd" clip-rule="evenodd" d="M6.20585 27.2058C4.98759 25.9876 4.98759 24.0124 6.20585 22.7941L13.5587 15.4413C14.7769 14.2231 16.7521 14.2231 17.9704 15.4413L25.3232 22.7942C26.5415 24.0124 26.5415 25.9876 25.3232 27.2058L17.9704 34.5587C16.7521 35.7769 14.7769 35.7769 13.5587 34.5587L6.20585 27.2058ZM7.67642 24.2647C7.27033 24.6708 7.27033 25.3292 7.67642 25.7353L15.0293 33.0881C15.4353 33.4942 16.0937 33.4942 16.4998 33.0881L23.8527 25.7353C24.2587 25.3292 24.2587 24.6708 23.8527 24.2647L16.4998 16.9119C16.0937 16.5058 15.4353 16.5058 15.0293 16.9119L7.67642 24.2647Z" fill="black"/>
<path d="M20.1776 39.7057C19.3654 38.8935 19.3654 37.5767 20.1776 36.7645L27.5304 29.4117C28.3426 28.5995 29.6594 28.5995 30.4716 29.4117L37.8244 36.7645C38.6366 37.5767 38.6366 38.8935 37.8244 39.7057L30.4716 47.0585C29.6594 47.8707 28.3426 47.8707 27.5304 47.0585L20.1776 39.7057Z" fill="black"/>
<path fill-rule="evenodd" clip-rule="evenodd" d="M19.4422 40.441C18.2239 39.2227 18.2239 37.2475 19.4422 36.0293L26.795 28.6764C28.0133 27.4582 29.9885 27.4582 31.2067 28.6764L38.5595 36.0293C39.7778 37.2475 39.7778 39.2227 38.5595 40.441L31.2067 47.7938C29.9885 49.012 28.0133 49.012 26.795 47.7938L19.4422 40.441ZM20.9127 37.4998C20.5067 37.9059 20.5067 38.5643 20.9127 38.9704L28.2656 46.3232C28.6717 46.7293 29.3301 46.7293 29.7361 46.3232L37.089 38.9704C37.4951 38.5643 37.4951 37.9059 37.089 37.4998L29.7361 30.147C29.3301 29.7409 28.6717 29.7409 28.2656 30.147L20.9127 37.4998Z" fill="black"/>
<path d="M20.1776 13.2355C19.3654 12.4233 19.3654 11.1065 20.1776 10.2943L27.5304 2.94149C28.3426 2.12932 29.6594 2.12932 30.4716 2.94149L37.8244 10.2943C38.6366 11.1065 38.6366 12.4233 37.8244 13.2355L30.4716 20.5883C29.6594 21.4005 28.3426 21.4005 27.5304 20.5883L20.1776 13.2355Z" fill="black"/>
<path fill-rule="evenodd" clip-rule="evenodd" d="M19.4422 13.9707C18.2239 12.7525 18.2239 10.7773 19.4422 9.55904L26.795 2.20621C28.0133 0.98795 29.9885 0.987952 31.2067 2.20621L38.5595 9.55904C39.7778 10.7773 39.7778 12.7525 38.5595 13.9707L31.2067 21.3236C29.9885 22.5418 28.0133 22.5418 26.795 21.3236L19.4422 13.9707ZM20.9127 11.0296C20.5067 11.4357 20.5067 12.0941 20.9127 12.5002L28.2656 19.853C28.6717 20.2591 29.3301 20.2591 29.7361 19.853L37.089 12.5002C37.4951 12.0941 37.4951 11.4357 37.089 11.0296L29.7361 3.67678C29.3301 3.27069 28.6717 3.27069 28.2656 3.67677L20.9127 11.0296Z" fill="black"/>
<path d="M33.41 26.4706C32.5978 25.6584 32.5978 24.3416 33.41 23.5294L40.7629 16.1766C41.575 15.3644 42.8918 15.3644 43.704 16.1766L51.0568 23.5294C51.869 24.3416 51.869 25.6584 51.0568 26.4706L43.704 33.8234C42.8918 34.6356 41.575 34.6356 40.7629 33.8234L33.41 26.4706Z" fill="black"/>
<path fill-rule="evenodd" clip-rule="evenodd" d="M32.6746 27.2058C31.4563 25.9876 31.4563 24.0124 32.6746 22.7941L40.0274 15.4413C41.2457 14.2231 43.2209 14.2231 44.4391 15.4413L51.792 22.7942C53.0102 24.0124 53.0102 25.9876 51.792 27.2058L44.4391 34.5587C43.2209 35.7769 41.2457 35.7769 40.0274 34.5587L32.6746 27.2058ZM34.1452 24.2647C33.7391 24.6708 33.7391 25.3292 34.1452 25.7353L41.498 33.0881C41.9041 33.4942 42.5625 33.4942 42.9686 33.0881L50.3214 25.7353C50.7275 25.3292 50.7275 24.6708 50.3214 24.2647L42.9686 16.9119C42.5625 16.5058 41.9041 16.5058 41.498 16.9119L34.1452 24.2647Z" fill="black"/>
<path d="M97.1432 36.5033C94.8273 36.5033 92.747 36.0216 90.9025 35.0584C89.058 34.0951 87.6131 32.763 86.5679 31.0619C85.5226 29.3403 85 27.4036 85 25.2516C85 23.0997 85.5226 21.1732 86.5679 19.4721C87.6131 17.7505 89.058 16.4081 90.9025 15.4449C92.747 14.4816 94.8273 14 97.1432 14C99.4591 14 101.539 14.4816 103.384 15.4449C105.228 16.4081 106.673 17.7505 107.718 19.4721C108.764 21.1732 109.286 23.0997 109.286 25.2516C109.286 27.4036 108.764 29.3403 107.718 31.0619C106.673 32.763 105.228 34.0951 103.384 35.0584C101.539 36.0216 99.4591 36.5033 97.1432 36.5033ZM97.1432 30.6315C98.0449 30.6315 98.8545 30.4163 99.5718 29.9859C100.31 29.535 100.894 28.91 101.324 28.1107C101.754 27.2909 101.97 26.3379 101.97 25.2516C101.97 24.1654 101.754 23.2227 101.324 22.4234C100.894 21.6036 100.31 20.9785 99.5718 20.5481C98.8545 20.0972 98.0449 19.8718 97.1432 19.8718C96.2414 19.8718 95.4216 20.0972 94.6838 20.5481C93.9665 20.9785 93.3926 21.6036 92.9622 22.4234C92.5318 23.2227 92.3166 24.1654 92.3166 25.2516C92.3166 26.3379 92.5318 27.2909 92.9622 28.1107C93.3926 28.91 93.9665 29.535 94.6838 29.9859C95.4216 30.4163 96.2414 30.6315 97.1432 30.6315Z" fill="black"/>
<path d="M121.142 30.6008H119.175V36.0114H111.92V14.4919H122.28C124.268 14.4919 126 14.8198 127.475 15.4756C128.951 16.1315 130.088 17.0742 130.888 18.3039C131.687 19.5336 132.086 20.9682 132.086 22.6078C132.086 24.1449 131.738 25.4873 131.041 26.635C130.344 27.7827 129.34 28.6948 128.028 29.3711L132.548 36.0114H124.801L121.142 30.6008ZM124.77 22.6078C124.77 21.8085 124.524 21.1937 124.032 20.7633C123.54 20.3124 122.802 20.087 121.819 20.087H119.175V25.1287H121.819C122.802 25.1287 123.54 24.9135 124.032 24.4831C124.524 24.0322 124.77 23.4071 124.77 22.6078Z" fill="black"/>
<path d="M145.955 36.5033C143.68 36.5033 141.63 36.0319 139.806 35.0891C137.982 34.1259 136.548 32.7937 135.502 31.0927C134.478 29.3711 133.965 27.4241 133.965 25.2516C133.965 23.0792 134.478 21.1424 135.502 19.4414C136.548 17.7198 137.982 16.3876 139.806 15.4449C141.63 14.4816 143.68 14 145.955 14C148.045 14 149.91 14.3689 151.55 15.1067C153.189 15.8445 154.542 16.9103 155.608 18.3039L151.027 22.3926C149.695 20.712 148.127 19.8718 146.324 19.8718C144.807 19.8718 143.588 20.3636 142.665 21.3474C141.743 22.3106 141.282 23.6121 141.282 25.2516C141.282 26.8912 141.743 28.2029 142.665 29.1866C143.588 30.1499 144.807 30.6315 146.324 30.6315C148.127 30.6315 149.695 29.7912 151.027 28.1107L155.608 32.1994C154.542 33.593 153.189 34.6587 151.55 35.3966C149.91 36.1344 148.045 36.5033 145.955 36.5033Z" fill="black"/>
<path d="M178.915 14.4919V36.0114H171.66V28.0799H164.958V36.0114H157.703V14.4919H164.958V22.1159H171.66V14.4919H178.915Z" fill="black"/>
<path d="M200.302 30.5393V36.0114H182.41V14.4919H199.903V19.964H189.543V22.4848H198.642V27.711H189.543V30.5393H200.302Z" fill="black"/>
<path d="M215.734 28.2029V36.0114H208.479V28.1107L200.363 14.4919H208.018L212.414 21.9315L216.841 14.4919H223.85L215.734 28.2029Z" fill="black"/>
<path d="M238.054 32.2609H229.877L228.432 36.0114H221.054L230.461 14.4919H237.593L247 36.0114H239.499L238.054 32.2609ZM236.056 27.0347L233.965 21.6241L231.875 27.0347H236.056Z" fill="black"/>
</g>
<defs>
<clipPath id="clip0">
<rect width="250" height="50" fill="white"/>
</clipPath>
</defs>
</svg>
